<?xml version="1.0" encoding="utf-8"?>
<!-- Generator: Adobe Illustrator 24.1.1, SVG Export Plug-In . SVG Version: 6.00 Build 0)  -->
<svg version="1.1" id="Calque_1" xmlns="http://www.w3.org/2000/svg" xmlns:xlink="http://www.w3.org/1999/xlink" x="0px" y="0px"
	 viewBox="0 0 332.79 526.07" style="enable-background:new 0 0 332.79 526.07;" xml:space="preserve">
<style type="text/css">
	.st0{fill:#2D4459;}
	.st1{opacity:0.7;fill:#2D4459;}
	.st2{opacity:0.8;fill:#FD5308;}
</style>
<path class="st0" d="M29.84,79.34l33.31-19.23c10.02-5.79,22.84-2.35,28.63,7.67l229.04,396.71c5.79,10.02,2.35,22.84-7.67,28.63
	l-33.31,19.23c-10.02,5.79-22.84,2.35-28.63-7.67L22.17,107.96C16.39,97.94,19.82,85.12,29.84,79.34z"/>
<path class="st1" d="M262.67,15.63l34.27,17.72c10.16,5.25,14.14,17.75,8.88,27.91L95.17,468.6c-5.25,10.16-17.75,14.14-27.91,8.88
	l-34.27-17.72c-10.16-5.25-14.14-17.75-8.88-27.91L234.76,24.51C240.01,14.35,252.51,10.38,262.67,15.63z"/>
<path class="st2" d="M74.77,482.29H36.46c-11.51,0-20.84-9.33-20.84-20.84V78.13c0-11.51,9.33-20.84,20.84-20.84h38.32
	c11.51,0,20.84,9.33,20.84,20.84v383.32C95.61,472.96,86.28,482.29,74.77,482.29z"/>
<g>
</g>
<g>
</g>
<g>
</g>
<g>
</g>
<g>
</g>
</svg>
